<mxfile host="app.diagrams.net" modified="2022-03-09T08:46:49.674Z" agent="5.0 (Windows)" etag="944NoWcuINSDhsigmV07" version="17.0.0" type="github">
  <diagram id="8ph-UxE2JjB3Vwe-9DLa" name="Page-1">
    <mxGraphModel dx="2249" dy="744" grid="1" gridSize="10" guides="1" tooltips="1" connect="1" arrows="1" fold="1" page="1" pageScale="1" pageWidth="827" pageHeight="1169" math="0" shadow="0">
      <root>
        <mxCell id="0" />
        <mxCell id="1" parent="0" />
        <mxCell id="jPlB_urYKcYwlZ38G4CA-73" value="工单处理信息记录表" style="rounded=0;whiteSpace=wrap;labelPosition=center;verticalLabelPosition=middle;align=right;verticalAlign=middle;" vertex="1" parent="1">
          <mxGeometry x="640" y="606" width="160" height="60" as="geometry" />
        </mxCell>
        <mxCell id="jPlB_urYKcYwlZ38G4CA-69" value="工单基础信息表" style="rounded=0;whiteSpace=wrap;labelPosition=center;verticalLabelPosition=middle;align=right;verticalAlign=middle;" vertex="1" parent="1">
          <mxGeometry x="640" y="334" width="160" height="60" as="geometry" />
        </mxCell>
        <mxCell id="jPlB_urYKcYwlZ38G4CA-3" style="edgeStyle=orthogonalEdgeStyle;rounded=0;orthogonalLoop=1;jettySize=auto;html=1;exitX=0.5;exitY=1;exitDx=0;exitDy=0;entryX=0.5;entryY=0;entryDx=0;entryDy=0;" edge="1" parent="1" source="jPlB_urYKcYwlZ38G4CA-1" target="jPlB_urYKcYwlZ38G4CA-2">
          <mxGeometry relative="1" as="geometry" />
        </mxCell>
        <mxCell id="jPlB_urYKcYwlZ38G4CA-1" value="开始" style="rounded=1;whiteSpace=wrap;html=1;" vertex="1" parent="1">
          <mxGeometry x="310" y="170" width="120" height="60" as="geometry" />
        </mxCell>
        <mxCell id="jPlB_urYKcYwlZ38G4CA-12" value="责任人查看工单详情" style="edgeStyle=orthogonalEdgeStyle;rounded=0;orthogonalLoop=1;jettySize=auto;html=1;exitX=0.5;exitY=1;exitDx=0;exitDy=0;entryX=0.5;entryY=0;entryDx=0;entryDy=0;" edge="1" parent="1" source="jPlB_urYKcYwlZ38G4CA-2" target="jPlB_urYKcYwlZ38G4CA-4">
          <mxGeometry relative="1" as="geometry" />
        </mxCell>
        <mxCell id="jPlB_urYKcYwlZ38G4CA-2" value="新建工单" style="rounded=0;whiteSpace=wrap;html=1;" vertex="1" parent="1">
          <mxGeometry x="310" y="270" width="120" height="60" as="geometry" />
        </mxCell>
        <mxCell id="jPlB_urYKcYwlZ38G4CA-7" value="责任人办结" style="edgeStyle=orthogonalEdgeStyle;rounded=0;orthogonalLoop=1;jettySize=auto;html=1;" edge="1" parent="1">
          <mxGeometry relative="1" as="geometry">
            <mxPoint x="369" y="490" as="sourcePoint" />
            <mxPoint x="369" y="540" as="targetPoint" />
          </mxGeometry>
        </mxCell>
        <mxCell id="jPlB_urYKcYwlZ38G4CA-17" value="分发" style="edgeStyle=orthogonalEdgeStyle;rounded=0;orthogonalLoop=1;jettySize=auto;html=1;" edge="1" parent="1" source="jPlB_urYKcYwlZ38G4CA-4">
          <mxGeometry relative="1" as="geometry">
            <mxPoint x="210" y="460" as="targetPoint" />
          </mxGeometry>
        </mxCell>
        <mxCell id="jPlB_urYKcYwlZ38G4CA-4" value="处理中" style="rounded=0;whiteSpace=wrap;html=1;" vertex="1" parent="1">
          <mxGeometry x="310" y="430" width="120" height="60" as="geometry" />
        </mxCell>
        <mxCell id="jPlB_urYKcYwlZ38G4CA-10" value="工单发起人通过" style="edgeStyle=orthogonalEdgeStyle;rounded=0;orthogonalLoop=1;jettySize=auto;html=1;" edge="1" parent="1" source="jPlB_urYKcYwlZ38G4CA-8" target="jPlB_urYKcYwlZ38G4CA-9">
          <mxGeometry relative="1" as="geometry" />
        </mxCell>
        <mxCell id="jPlB_urYKcYwlZ38G4CA-11" value="工单发起人驳回" style="edgeStyle=orthogonalEdgeStyle;rounded=0;orthogonalLoop=1;jettySize=auto;html=1;exitX=1;exitY=0.5;exitDx=0;exitDy=0;entryX=1;entryY=0.5;entryDx=0;entryDy=0;" edge="1" parent="1" source="jPlB_urYKcYwlZ38G4CA-8" target="jPlB_urYKcYwlZ38G4CA-4">
          <mxGeometry relative="1" as="geometry">
            <Array as="points">
              <mxPoint x="440" y="580" />
              <mxPoint x="440" y="460" />
            </Array>
          </mxGeometry>
        </mxCell>
        <mxCell id="jPlB_urYKcYwlZ38G4CA-8" value="工单发起人是否通过" style="rhombus;whiteSpace=wrap;html=1;" vertex="1" parent="1">
          <mxGeometry x="330" y="540" width="80" height="80" as="geometry" />
        </mxCell>
        <mxCell id="jPlB_urYKcYwlZ38G4CA-14" value="工单发起人关闭" style="edgeStyle=orthogonalEdgeStyle;rounded=0;orthogonalLoop=1;jettySize=auto;html=1;exitX=0.5;exitY=1;exitDx=0;exitDy=0;entryX=0.5;entryY=0;entryDx=0;entryDy=0;" edge="1" parent="1" source="jPlB_urYKcYwlZ38G4CA-9" target="jPlB_urYKcYwlZ38G4CA-13">
          <mxGeometry relative="1" as="geometry" />
        </mxCell>
        <mxCell id="jPlB_urYKcYwlZ38G4CA-49" value="" style="edgeStyle=orthogonalEdgeStyle;rounded=0;orthogonalLoop=1;jettySize=auto;html=1;" edge="1" parent="1" source="jPlB_urYKcYwlZ38G4CA-9" target="jPlB_urYKcYwlZ38G4CA-13">
          <mxGeometry relative="1" as="geometry" />
        </mxCell>
        <mxCell id="jPlB_urYKcYwlZ38G4CA-9" value="已处理" style="whiteSpace=wrap;html=1;" vertex="1" parent="1">
          <mxGeometry x="310" y="660" width="120" height="60" as="geometry" />
        </mxCell>
        <mxCell id="jPlB_urYKcYwlZ38G4CA-16" value="" style="edgeStyle=orthogonalEdgeStyle;rounded=0;orthogonalLoop=1;jettySize=auto;html=1;" edge="1" parent="1" source="jPlB_urYKcYwlZ38G4CA-13" target="jPlB_urYKcYwlZ38G4CA-15">
          <mxGeometry relative="1" as="geometry" />
        </mxCell>
        <mxCell id="jPlB_urYKcYwlZ38G4CA-13" value="已关闭" style="rounded=0;whiteSpace=wrap;html=1;" vertex="1" parent="1">
          <mxGeometry x="310" y="770" width="120" height="60" as="geometry" />
        </mxCell>
        <mxCell id="jPlB_urYKcYwlZ38G4CA-15" value="结束" style="whiteSpace=wrap;html=1;rounded=1;" vertex="1" parent="1">
          <mxGeometry x="310" y="870" width="120" height="60" as="geometry" />
        </mxCell>
        <mxCell id="jPlB_urYKcYwlZ38G4CA-62" value="责任人查看详情" style="edgeStyle=orthogonalEdgeStyle;rounded=0;orthogonalLoop=1;jettySize=auto;html=1;exitX=0;exitY=0.5;exitDx=0;exitDy=0;" edge="1" parent="1" source="jPlB_urYKcYwlZ38G4CA-18" target="jPlB_urYKcYwlZ38G4CA-60">
          <mxGeometry relative="1" as="geometry" />
        </mxCell>
        <mxCell id="jPlB_urYKcYwlZ38G4CA-18" value="分发工单1" style="rounded=0;whiteSpace=wrap;html=1;" vertex="1" parent="1">
          <mxGeometry x="90" y="370" width="80" height="40" as="geometry" />
        </mxCell>
        <mxCell id="jPlB_urYKcYwlZ38G4CA-20" value="" style="shape=curlyBracket;whiteSpace=wrap;html=1;rounded=1;flipH=1;" vertex="1" parent="1">
          <mxGeometry x="190" y="400" width="20" height="120" as="geometry" />
        </mxCell>
        <mxCell id="jPlB_urYKcYwlZ38G4CA-57" value="责任人查看详情" style="edgeStyle=orthogonalEdgeStyle;rounded=0;orthogonalLoop=1;jettySize=auto;html=1;entryX=1;entryY=0.5;entryDx=0;entryDy=0;" edge="1" parent="1" source="jPlB_urYKcYwlZ38G4CA-21" target="jPlB_urYKcYwlZ38G4CA-58">
          <mxGeometry relative="1" as="geometry">
            <mxPoint x="-30" y="672.5" as="targetPoint" />
          </mxGeometry>
        </mxCell>
        <mxCell id="jPlB_urYKcYwlZ38G4CA-21" value="分发工单2" style="rounded=0;whiteSpace=wrap;html=1;" vertex="1" parent="1">
          <mxGeometry x="90" y="435" width="80" height="40" as="geometry" />
        </mxCell>
        <mxCell id="jPlB_urYKcYwlZ38G4CA-54" value="责任人查看详情" style="edgeStyle=orthogonalEdgeStyle;rounded=0;orthogonalLoop=1;jettySize=auto;html=1;exitX=0;exitY=0.5;exitDx=0;exitDy=0;entryX=1;entryY=0.5;entryDx=0;entryDy=0;" edge="1" parent="1" source="jPlB_urYKcYwlZ38G4CA-22" target="jPlB_urYKcYwlZ38G4CA-53">
          <mxGeometry relative="1" as="geometry" />
        </mxCell>
        <mxCell id="jPlB_urYKcYwlZ38G4CA-22" value="分发工单n" style="rounded=0;whiteSpace=wrap;html=1;" vertex="1" parent="1">
          <mxGeometry x="90" y="500" width="80" height="40" as="geometry" />
        </mxCell>
        <mxCell id="jPlB_urYKcYwlZ38G4CA-29" style="edgeStyle=orthogonalEdgeStyle;rounded=0;orthogonalLoop=1;jettySize=auto;html=1;exitX=0.5;exitY=0;exitDx=0;exitDy=0;entryX=0.5;entryY=0;entryDx=0;entryDy=0;" edge="1" parent="1" source="jPlB_urYKcYwlZ38G4CA-23" target="jPlB_urYKcYwlZ38G4CA-18">
          <mxGeometry relative="1" as="geometry">
            <Array as="points">
              <mxPoint x="-110" y="360" />
              <mxPoint x="130" y="360" />
            </Array>
          </mxGeometry>
        </mxCell>
        <mxCell id="jPlB_urYKcYwlZ38G4CA-32" value="分发人驳回" style="edgeLabel;html=1;align=center;verticalAlign=middle;resizable=0;points=[];" vertex="1" connectable="0" parent="jPlB_urYKcYwlZ38G4CA-29">
          <mxGeometry x="-0.1429" y="2" relative="1" as="geometry">
            <mxPoint as="offset" />
          </mxGeometry>
        </mxCell>
        <mxCell id="jPlB_urYKcYwlZ38G4CA-34" value="分发人通过" style="edgeStyle=orthogonalEdgeStyle;rounded=0;orthogonalLoop=1;jettySize=auto;html=1;exitX=0;exitY=0.5;exitDx=0;exitDy=0;entryX=1;entryY=0.5;entryDx=0;entryDy=0;" edge="1" parent="1" source="jPlB_urYKcYwlZ38G4CA-23" target="jPlB_urYKcYwlZ38G4CA-37">
          <mxGeometry relative="1" as="geometry">
            <mxPoint x="-200" y="390" as="targetPoint" />
            <Array as="points">
              <mxPoint x="-140" y="390" />
            </Array>
          </mxGeometry>
        </mxCell>
        <mxCell id="jPlB_urYKcYwlZ38G4CA-23" value="分发责任人是否通过" style="rhombus;whiteSpace=wrap;html=1;rounded=0;" vertex="1" parent="1">
          <mxGeometry x="-140" y="365" width="60" height="50" as="geometry" />
        </mxCell>
        <mxCell id="jPlB_urYKcYwlZ38G4CA-30" value="分发人驳回" style="edgeStyle=orthogonalEdgeStyle;rounded=0;orthogonalLoop=1;jettySize=auto;html=1;exitX=0.5;exitY=0;exitDx=0;exitDy=0;entryX=0.588;entryY=0;entryDx=0;entryDy=0;entryPerimeter=0;" edge="1" parent="1" source="jPlB_urYKcYwlZ38G4CA-25" target="jPlB_urYKcYwlZ38G4CA-21">
          <mxGeometry x="-0.1979" relative="1" as="geometry">
            <Array as="points">
              <mxPoint x="137" y="425" />
            </Array>
            <mxPoint as="offset" />
          </mxGeometry>
        </mxCell>
        <mxCell id="jPlB_urYKcYwlZ38G4CA-35" value="分发人通过" style="edgeStyle=orthogonalEdgeStyle;rounded=0;orthogonalLoop=1;jettySize=auto;html=1;exitX=0;exitY=0.5;exitDx=0;exitDy=0;entryX=1;entryY=0.5;entryDx=0;entryDy=0;" edge="1" parent="1" source="jPlB_urYKcYwlZ38G4CA-25" target="jPlB_urYKcYwlZ38G4CA-39">
          <mxGeometry relative="1" as="geometry">
            <mxPoint x="-200" y="455" as="targetPoint" />
          </mxGeometry>
        </mxCell>
        <mxCell id="jPlB_urYKcYwlZ38G4CA-25" value="分发人是否通过" style="rhombus;whiteSpace=wrap;html=1;rounded=0;" vertex="1" parent="1">
          <mxGeometry x="-140" y="425" width="60" height="60" as="geometry" />
        </mxCell>
        <mxCell id="jPlB_urYKcYwlZ38G4CA-31" style="edgeStyle=orthogonalEdgeStyle;rounded=0;orthogonalLoop=1;jettySize=auto;html=1;exitX=0.5;exitY=0;exitDx=0;exitDy=0;entryX=0.638;entryY=0;entryDx=0;entryDy=0;entryPerimeter=0;" edge="1" parent="1" source="jPlB_urYKcYwlZ38G4CA-27" target="jPlB_urYKcYwlZ38G4CA-22">
          <mxGeometry relative="1" as="geometry">
            <Array as="points">
              <mxPoint x="141" y="490" />
            </Array>
          </mxGeometry>
        </mxCell>
        <mxCell id="jPlB_urYKcYwlZ38G4CA-38" value="分发人驳回" style="edgeLabel;html=1;align=center;verticalAlign=middle;resizable=0;points=[];" vertex="1" connectable="0" parent="jPlB_urYKcYwlZ38G4CA-31">
          <mxGeometry x="-0.2818" y="2" relative="1" as="geometry">
            <mxPoint as="offset" />
          </mxGeometry>
        </mxCell>
        <mxCell id="jPlB_urYKcYwlZ38G4CA-36" value="分发人通过" style="edgeStyle=orthogonalEdgeStyle;rounded=0;orthogonalLoop=1;jettySize=auto;html=1;exitX=0;exitY=0.5;exitDx=0;exitDy=0;entryX=1;entryY=0.5;entryDx=0;entryDy=0;" edge="1" parent="1" source="jPlB_urYKcYwlZ38G4CA-27" target="jPlB_urYKcYwlZ38G4CA-40">
          <mxGeometry relative="1" as="geometry">
            <mxPoint x="-200" y="520" as="targetPoint" />
          </mxGeometry>
        </mxCell>
        <mxCell id="jPlB_urYKcYwlZ38G4CA-27" value="分发人是否通过" style="rhombus;whiteSpace=wrap;html=1;rounded=0;" vertex="1" parent="1">
          <mxGeometry x="-140" y="490" width="60" height="60" as="geometry" />
        </mxCell>
        <mxCell id="jPlB_urYKcYwlZ38G4CA-43" value="分发人关闭" style="edgeStyle=orthogonalEdgeStyle;rounded=0;orthogonalLoop=1;jettySize=auto;html=1;" edge="1" parent="1" source="jPlB_urYKcYwlZ38G4CA-37" target="jPlB_urYKcYwlZ38G4CA-42">
          <mxGeometry relative="1" as="geometry" />
        </mxCell>
        <mxCell id="jPlB_urYKcYwlZ38G4CA-37" value="已处理" style="whiteSpace=wrap;html=1;" vertex="1" parent="1">
          <mxGeometry x="-320" y="370" width="80" height="40" as="geometry" />
        </mxCell>
        <mxCell id="jPlB_urYKcYwlZ38G4CA-45" value="分发人关闭" style="edgeStyle=orthogonalEdgeStyle;rounded=0;orthogonalLoop=1;jettySize=auto;html=1;" edge="1" parent="1" source="jPlB_urYKcYwlZ38G4CA-39" target="jPlB_urYKcYwlZ38G4CA-44">
          <mxGeometry relative="1" as="geometry" />
        </mxCell>
        <mxCell id="jPlB_urYKcYwlZ38G4CA-39" value="已处理" style="whiteSpace=wrap;html=1;" vertex="1" parent="1">
          <mxGeometry x="-320" y="435" width="80" height="40" as="geometry" />
        </mxCell>
        <mxCell id="jPlB_urYKcYwlZ38G4CA-47" value="分发人关闭" style="edgeStyle=orthogonalEdgeStyle;rounded=0;orthogonalLoop=1;jettySize=auto;html=1;" edge="1" parent="1" source="jPlB_urYKcYwlZ38G4CA-40" target="jPlB_urYKcYwlZ38G4CA-46">
          <mxGeometry relative="1" as="geometry" />
        </mxCell>
        <mxCell id="jPlB_urYKcYwlZ38G4CA-40" value="已处理" style="whiteSpace=wrap;html=1;" vertex="1" parent="1">
          <mxGeometry x="-320" y="500" width="80" height="40" as="geometry" />
        </mxCell>
        <mxCell id="jPlB_urYKcYwlZ38G4CA-42" value="已关闭" style="whiteSpace=wrap;html=1;" vertex="1" parent="1">
          <mxGeometry x="-480" y="370" width="80" height="40" as="geometry" />
        </mxCell>
        <mxCell id="jPlB_urYKcYwlZ38G4CA-44" value="已关闭" style="whiteSpace=wrap;html=1;" vertex="1" parent="1">
          <mxGeometry x="-480" y="435" width="80" height="40" as="geometry" />
        </mxCell>
        <mxCell id="jPlB_urYKcYwlZ38G4CA-46" value="已关闭" style="whiteSpace=wrap;html=1;" vertex="1" parent="1">
          <mxGeometry x="-480" y="500" width="80" height="40" as="geometry" />
        </mxCell>
        <mxCell id="jPlB_urYKcYwlZ38G4CA-55" value="办结" style="edgeStyle=orthogonalEdgeStyle;rounded=0;orthogonalLoop=1;jettySize=auto;html=1;exitX=0;exitY=0.5;exitDx=0;exitDy=0;entryX=1;entryY=0.5;entryDx=0;entryDy=0;" edge="1" parent="1" source="jPlB_urYKcYwlZ38G4CA-53" target="jPlB_urYKcYwlZ38G4CA-27">
          <mxGeometry relative="1" as="geometry" />
        </mxCell>
        <mxCell id="jPlB_urYKcYwlZ38G4CA-53" value="处理中" style="rounded=0;whiteSpace=wrap;html=1;" vertex="1" parent="1">
          <mxGeometry x="-50" y="505" width="50" height="30" as="geometry" />
        </mxCell>
        <mxCell id="jPlB_urYKcYwlZ38G4CA-59" value="办结" style="edgeStyle=orthogonalEdgeStyle;rounded=0;orthogonalLoop=1;jettySize=auto;html=1;exitX=0;exitY=0.5;exitDx=0;exitDy=0;entryX=1;entryY=0.5;entryDx=0;entryDy=0;" edge="1" parent="1" source="jPlB_urYKcYwlZ38G4CA-58" target="jPlB_urYKcYwlZ38G4CA-25">
          <mxGeometry relative="1" as="geometry" />
        </mxCell>
        <mxCell id="jPlB_urYKcYwlZ38G4CA-58" value="处理中" style="rounded=0;whiteSpace=wrap;html=1;" vertex="1" parent="1">
          <mxGeometry x="-50" y="440" width="50" height="30" as="geometry" />
        </mxCell>
        <mxCell id="jPlB_urYKcYwlZ38G4CA-63" value="办结" style="edgeStyle=orthogonalEdgeStyle;rounded=0;orthogonalLoop=1;jettySize=auto;html=1;exitX=0;exitY=0.5;exitDx=0;exitDy=0;entryX=1;entryY=0.5;entryDx=0;entryDy=0;" edge="1" parent="1" source="jPlB_urYKcYwlZ38G4CA-60" target="jPlB_urYKcYwlZ38G4CA-23">
          <mxGeometry relative="1" as="geometry" />
        </mxCell>
        <mxCell id="jPlB_urYKcYwlZ38G4CA-60" value="处理中" style="rounded=0;whiteSpace=wrap;html=1;" vertex="1" parent="1">
          <mxGeometry x="-50" y="375" width="50" height="30" as="geometry" />
        </mxCell>
        <mxCell id="jPlB_urYKcYwlZ38G4CA-66" value="" style="sketch=0;outlineConnect=0;fontColor=#232F3E;gradientColor=none;fillColor=#2E27AD;strokeColor=none;dashed=0;verticalLabelPosition=bottom;verticalAlign=top;align=center;html=1;fontSize=12;fontStyle=0;aspect=fixed;pointerEvents=1;shape=mxgraph.aws4.rds_postgresql_instance;rounded=1;" vertex="1" parent="1">
          <mxGeometry x="640" y="340" width="48" height="48" as="geometry" />
        </mxCell>
        <mxCell id="jPlB_urYKcYwlZ38G4CA-72" value="" style="sketch=0;outlineConnect=0;fontColor=#232F3E;gradientColor=none;fillColor=#2E27AD;strokeColor=none;dashed=0;verticalLabelPosition=bottom;verticalAlign=top;align=center;html=1;fontSize=12;fontStyle=0;aspect=fixed;pointerEvents=1;shape=mxgraph.aws4.rds_postgresql_instance;rounded=1;" vertex="1" parent="1">
          <mxGeometry x="640" y="612" width="48" height="48" as="geometry" />
        </mxCell>
        <mxCell id="jPlB_urYKcYwlZ38G4CA-75" value="" style="endArrow=classic;html=1;rounded=0;" edge="1" parent="1">
          <mxGeometry width="50" height="50" relative="1" as="geometry">
            <mxPoint x="510" y="360" as="sourcePoint" />
            <mxPoint x="640" y="360" as="targetPoint" />
          </mxGeometry>
        </mxCell>
        <mxCell id="jPlB_urYKcYwlZ38G4CA-76" value="状态变化" style="edgeLabel;html=1;align=center;verticalAlign=middle;resizable=0;points=[];" vertex="1" connectable="0" parent="jPlB_urYKcYwlZ38G4CA-75">
          <mxGeometry x="-0.1692" y="-1" relative="1" as="geometry">
            <mxPoint as="offset" />
          </mxGeometry>
        </mxCell>
        <mxCell id="jPlB_urYKcYwlZ38G4CA-77" value="" style="endArrow=classic;html=1;rounded=0;" edge="1" parent="1">
          <mxGeometry width="50" height="50" relative="1" as="geometry">
            <mxPoint x="510" y="635.5" as="sourcePoint" />
            <mxPoint x="640" y="635.5" as="targetPoint" />
          </mxGeometry>
        </mxCell>
        <mxCell id="jPlB_urYKcYwlZ38G4CA-78" value="操作内容" style="edgeLabel;html=1;align=center;verticalAlign=middle;resizable=0;points=[];" vertex="1" connectable="0" parent="jPlB_urYKcYwlZ38G4CA-77">
          <mxGeometry x="-0.1692" y="-1" relative="1" as="geometry">
            <mxPoint as="offset" />
          </mxGeometry>
        </mxCell>
        <mxCell id="jPlB_urYKcYwlZ38G4CA-79" value="" style="shape=curlyBracket;whiteSpace=wrap;html=1;rounded=1;" vertex="1" parent="1">
          <mxGeometry x="480" y="355" width="20" height="285" as="geometry" />
        </mxCell>
      </root>
    </mxGraphModel>
  </diagram>
</mxfile>
